# xmcd
#
# Track frame offsets: 
#        150
#        13930
#        28760
#        42735
#        57343
#        71583
#        85228
#        98710
#        113645
#        127440
#        143728
#        159055
#        174130
#
# Disc length: 2501 seconds
#
# Revision: 4
# Processed by: cddbd v1.5.1PL0 Copyright (c) Steve Scherf et al.
# Submitted via: ExactAudioCopy v0.95b1
#
DISCID=ae09c30d
DTITLE=Louis Armstrong - West End Blues
DYEAR=1996
DGENRE=Blues
TTITLE0=Alligator Crawl
TTITLE1=Wild Man Blues
TTITLE2=Melancholy Blues
TTITLE3=Willie The Weeper
TTITLE4=Ory's Creole Trombone
TTITLE5=Struttin With Some Barbecue
TTITLE6=Hotter Than That
TTITLE7=West End Blues
TTITLE8=Potato Head Blues
TTITLE9=Keyhole Blues
TTITLE10=Gully Low Blues
TTITLE11=Basin Street Blues
TTITLE12=S.O.L. Blues
EXTD=ID3G: 0
EXTT0=
EXTT1=
EXTT2=
EXTT3=
EXTT4=
EXTT5=
EXTT6=
EXTT7=
EXTT8=
EXTT9=
EXTT10=
EXTT11=
EXTT12=
PLAYORDER=
